<?xml version="1.0" encoding="UTF-8" standalone="no"?>
<!-- Created with Inkscape (http://www.inkscape.org/) -->

<svg
   width="947.71484"
   height="949.53906"
   viewBox="0 0 947.71484 949.53906"
   id="svg2"
   version="1.1"
   inkscape:version="1.4.3 (0d15f75, 2025-12-25)"
   sodipodi:docname="vl-2.svg"
   inkscape:export-filename="G:\SOEN 390 Floorplans\VL-2.png"
   inkscape:export-xdpi="90"
   inkscape:export-ydpi="90"
   xml:space="preserve"
   xmlns:inkscape="http://www.inkscape.org/namespaces/inkscape"
   xmlns:sodipodi="http://sodipodi.sourceforge.net/DTD/sodipodi-0.dtd"
   xmlns="http://www.w3.org/2000/svg"
   xmlns:svg="http://www.w3.org/2000/svg"
   xmlns:rdf="http://www.w3.org/1999/02/22-rdf-syntax-ns#"
   xmlns:cc="http://creativecommons.org/ns#"
   xmlns:dc="http://purl.org/dc/elements/1.1/"><defs
     id="defs4"><rect
       x="571.34228"
       y="340.82547"
       width="277.18586"
       height="527.50166"
       id="rect1" /></defs><sodipodi:namedview
     id="base"
     pagecolor="#ffffff"
     bordercolor="#666666"
     borderopacity="1.0"
     inkscape:pageopacity="0.0"
     inkscape:pageshadow="2"
     inkscape:zoom="0.70710678"
     inkscape:cx="621.54686"
     inkscape:cy="519.72349"
     inkscape:document-units="px"
     inkscape:current-layer="g4801"
     showgrid="false"
     inkscape:snap-page="false"
     units="px"
     inkscape:object-paths="true"
     inkscape:snap-intersection-paths="true"
     inkscape:object-nodes="true"
     inkscape:snap-bbox="false"
     inkscape:window-width="2560"
     inkscape:window-height="1369"
     inkscape:window-x="-8"
     inkscape:window-y="-8"
     inkscape:window-maximized="1"
     inkscape:snap-nodes="true"
     inkscape:snap-others="false"
     inkscape:showpageshadow="2"
     inkscape:pagecheckerboard="0"
     inkscape:deskcolor="#d1d1d1" /><metadata
     id="metadata7"><rdf:RDF><cc:Work
         rdf:about=""><dc:format>image/svg+xml</dc:format><dc:type
           rdf:resource="http://purl.org/dc/dcmitype/StillImage" /></cc:Work></rdf:RDF></metadata><g
     inkscape:groupmode="layer"
     id="g4801"
     inkscape:label="base"
     style="display:inline"
     transform="translate(-29,-16.888672)" /><g
     inkscape:groupmode="layer"
     id="layer6"
     inkscape:label="rooms"
     transform="translate(-29,-16.888672)"><path
       inkscape:connector-curvature="0"
       id="path4861"
       d="m 762.16016,164.86523 v 169.95899 h 65.66015 v -20.45703 h 24.74805 V 183.04883 h -24.74805 v -18.1836 z"
       style="display:inline;fill:#da3636;fill-opacity:1;stroke:#000000;stroke-width:2;stroke-miterlimit:4;stroke-dasharray:none;stroke-opacity:1"
       inkscape:label="room-VL2-205" /><text
       xml:space="preserve"
       style="font-size:18.6667px;writing-mode:lr-tb;direction:ltr;fill:#ffffff;fill-opacity:1;stroke:none;stroke-width:0.00831478;stroke-dasharray:none;stroke-opacity:1"
       x="773.77686"
       y="252.53812"
       id="text8"><tspan
         sodipodi:role="line"
         id="tspan8"
         x="773.77686"
         y="252.53812"
         style="font-size:18.6667px">VL-205</tspan></text><text
       xml:space="preserve"
       transform="translate(29,16.888672)"
       id="text1"
       style="fill:#49c1be;text-orientation:auto;font-size:16px;stroke-width:0.00831478;fill-opacity:0;stroke:#547ad7;stroke-opacity:0;writing-mode:lr-tb;direction:ltr;white-space:pre;shape-inside:url(#rect1)" /></g><g
     inkscape:groupmode="layer"
     id="layer7"
     inkscape:label="walkable"
     transform="translate(-29,-16.888672)"><path
       style="fill:#4c6daf;fill-opacity:0;stroke:none;stroke-width:0.00831478;stroke-dasharray:none;stroke-opacity:1"
       d="m 828.82422,315.37891 h 33.73828 v 31.0625 h 72.14844 v 5.35546 h 12.5 V 526.4375 h 27.5 v 38.69922 H 850.76953 v 57.13672 H 793.86719 V 359.81641 h -17.5625 v -23.98047 h 52.52343 z"
       id="path25"
       inkscape:label="walkable-1" /><path
       style="fill:#4c6daf;fill-opacity:0;stroke:none;stroke-width:0.00831478;stroke-dasharray:none;stroke-opacity:1"
       d="M 542.46094,160.94922 V 18.902344 h 286.875 V 123.59375 h 18.82031 V 92.867187 h 14.40234 V 315.37109 h -8.98047 V 182.03125 H 828.83203 V 163.84766 H 761.14521 V 333.8125 H 708.62109 V 193.14453 h -16.66797 v -26.76562 h -48.48437 c 0,0 0.008,-5.43314 0,-5.4375 -0.008,-0.004 -101.00781,0.008 -101.00781,0.008 z"
       id="path26"
       inkscape:label="walkable-2" /><path
       style="fill:#4c6daf;fill-opacity:0;stroke:none;stroke-width:0.00831478;stroke-dasharray:none;stroke-opacity:1"
       d="M 206.71875,363.70703 H 644.9375 v -3.90625 H 774.28125 V 335.83203 H 641.44141 V 162.96875 h -96.97266 v 12.52344 h 47.25391 v 153.45312 h -47.25 v 6.78125 h -304.0586 v -22.85937 h -33.69531 z"
       id="path28"
       inkscape:label="walkable-4" /><path
       style="fill:#4c6daf;fill-opacity:0;stroke:none;stroke-width:0.00831478;stroke-dasharray:none;stroke-opacity:1"
       d="M 542.45312,333.71094 V 18.902344 H 209.10156 V 120.72656 h -19.51953 v 49.41016 h 17.14453 v 140.71094 h 35.71485 v 22.85937 z"
       id="path29"
       inkscape:label="walkable-5" /><path
       style="fill:#4c6daf;fill-opacity:0;stroke:none;stroke-width:0.00831478;stroke-dasharray:none;stroke-opacity:1"
       d="M 354.70312,964.41797 V 363.71094 h -57.97656 v 107.74218 h -52.77734 v 74.27344 h -40.32031 v -32.14453 h -99.76172 v 55.71484 H 55.292969 v 61.4336 H 32.4375 v 189.40234 h 52.855469 v 37.7461 H 61.003906 v 65.11718 h 38.574219 v 41.42188 z"
       id="path30"
       inkscape:label="walkable-6" /><path
       style="fill:#4c6daf;fill-opacity:0;stroke:none;stroke-width:0.00831478;stroke-dasharray:none;stroke-opacity:1"
       d="M 644.93359,363.73047 V 824.99219 H 393.96875 V 804.78906 H 354.71484 V 363.71484 Z"
       id="path31"
       inkscape:label="walkable-7" /></g><g
     inkscape:groupmode="layer"
     id="layer8"
     inkscape:label="points-of-interest"
     transform="translate(-29,-16.888672)"><path
       style="display:inline;fill:#da3636;fill-opacity:1;stroke:#000000;stroke-width:2;stroke-miterlimit:4;stroke-dasharray:none;stroke-opacity:1"
       d="m 642.45703,194.16016 v 50.00195 h 18.6875 v 20.70898 h 46.4668 v -70.71093 z"
       id="path4817"
       inkscape:connector-curvature="0"
       inkscape:label="washroomMale-1" /><text
       xml:space="preserve"
       style="font-size:14.6667px;writing-mode:lr-tb;direction:ltr;fill:#ffffff;fill-opacity:1;stroke:none;stroke-width:0.00831478;stroke-dasharray:none;stroke-opacity:1"
       x="648.51794"
       y="211.12189"
       id="text6"><tspan
         sodipodi:role="line"
         id="tspan6"
         x="648.51794"
         y="211.12189"
         style="font-size:14.6667px">VL-212</tspan></text><path
       style="display:inline;fill:#da3636;fill-opacity:1;stroke:#000000;stroke-width:2;stroke-miterlimit:4;stroke-dasharray:none;stroke-opacity:1"
       d="m 661.14453,264.87109 v 17.17188 h -18.6875 v 52.78125 h 65.1543 v -69.95313 z"
       id="path4815"
       inkscape:connector-curvature="0"
       inkscape:label="washroomFemale-1" /><text
       xml:space="preserve"
       style="font-size:14.6667px;writing-mode:lr-tb;direction:ltr;fill:#ffffff;fill-opacity:1;stroke:none;stroke-width:0.00831478;stroke-dasharray:none;stroke-opacity:1"
       x="648.51794"
       y="328.29959"
       id="text7"><tspan
         sodipodi:role="line"
         id="tspan7"
         x="648.51794"
         y="328.29959">VL-210</tspan></text><g
       style="fill:#ffffff"
       id="g24"
       transform="matrix(1.8523157,0,0,1.8523157,667.39484,214.19007)"><path
         fill="#ffffff"
         d="M 10,21 V 15 H 9 Q 8.575,15 8.288,14.712 8.001,14.424 8,14 V 9 Q 8,8.175 8.588,7.588 9.176,7.001 10,7 h 4 Q 14.825,7 15.413,7.588 16.001,8.176 16,9 v 5 q 0,0.425 -0.288,0.713 Q 15.424,15.001 15,15 h -1 v 6 q 0,0.425 -0.288,0.713 Q 13.424,22.001 13,22 H 11 Q 10.575,22 10.288,21.712 10.001,21.424 10,21 M 12,6 Q 11.175,6 10.588,5.413 10.001,4.826 10,4 9.999,3.174 10.588,2.588 11.177,2.002 12,2 12.823,1.998 13.413,2.588 14.003,3.178 14,4 13.997,4.822 13.413,5.413 12.829,6.004 12,6"
         id="path1-0" /></g><g
       style="fill:#ffffff"
       id="g25"
       transform="matrix(1.8934161,0,0,1.8934161,666.5602,268.31949)"><path
         fill="#ffffff"
         d="M 10,21 V 16 H 8.475 Q 7.95,16 7.65,15.563 7.35,15.126 7.55,14.625 L 10.05,8.3 Q 10.3,7.7 10.825,7.35 11.35,7 12,7 12.65,7 13.175,7.35 13.7,7.7 13.95,8.3 l 2.5,6.325 q 0.2,0.5 -0.1,0.938 -0.3,0.438 -0.825,0.437 H 14 v 5 q 0,0.425 -0.288,0.713 Q 13.424,22.001 13,22 H 11 Q 10.575,22 10.288,21.712 10.001,21.424 10,21 M 10.588,5.413 Q 10,4.825 10,4 10,3.175 10.588,2.588 11.176,2.001 12,2 12.824,1.999 13.413,2.588 14.002,3.177 14,4 13.998,4.823 13.413,5.413 12.828,6.003 12,6 11.172,5.997 10.588,5.413"
         id="path1-9" /></g></g><g
     inkscape:groupmode="layer"
     id="layer9"
     inkscape:label="connectors"
     transform="translate(-29,-16.888672)"><ellipse
       style="display:inline;fill:#ffffff;fill-opacity:0"
       id="path118-13-182-10"
       cx="762.09265"
       cy="244.62292"
       rx="4.9497476"
       ry="5.4800777"
       inkscape:label="door-vl2-205"
       inkscape:transform-center-x="48.790368"
       inkscape:transform-center-y="10.253048" /><ellipse
       style="display:inline;fill:#ffffff;fill-opacity:0"
       id="path118-13-182-34"
       cx="642.23547"
       cy="294.48007"
       rx="4.9497476"
       ry="5.4800777"
       inkscape:label="door-vl2-washroomFemale-1"
       inkscape:transform-center-x="48.790368"
       inkscape:transform-center-y="10.253048" /><ellipse
       style="display:inline;fill:#ffffff;fill-opacity:0"
       id="path118-13-182-65"
       cx="642.09265"
       cy="231.19435"
       rx="4.9497476"
       ry="5.4800777"
       inkscape:label="door-vl2-washroomMale-1"
       inkscape:transform-center-x="48.790368"
       inkscape:transform-center-y="10.253048" /></g></svg>
