<?xml version="1.0" encoding="UTF-8" standalone="no"?>
<!-- Created with Inkscape (http://www.inkscape.org/) -->

<svg
   width="957.71503"
   height="959.539"
   viewBox="0 0 957.71502 959.539"
   id="svg2"
   version="1.1"
   inkscape:version="1.4.3 (0d15f75, 2025-12-25)"
   sodipodi:docname="vl-2.svg"
   inkscape:export-filename="G:\SOEN 390 Floorplans\VL-2.png"
   inkscape:export-xdpi="90"
   inkscape:export-ydpi="90"
   xml:space="preserve"
   xmlns:inkscape="http://www.inkscape.org/namespaces/inkscape"
   xmlns:sodipodi="http://sodipodi.sourceforge.net/DTD/sodipodi-0.dtd"
   xmlns="http://www.w3.org/2000/svg"
   xmlns:svg="http://www.w3.org/2000/svg"
   xmlns:rdf="http://www.w3.org/1999/02/22-rdf-syntax-ns#"
   xmlns:cc="http://creativecommons.org/ns#"
   xmlns:dc="http://purl.org/dc/elements/1.1/"><defs
     id="defs4" /><sodipodi:namedview
     id="base"
     pagecolor="#ffffff"
     bordercolor="#666666"
     borderopacity="1.0"
     inkscape:pageopacity="0.0"
     inkscape:pageshadow="2"
     inkscape:zoom="1"
     inkscape:cx="528.5"
     inkscape:cy="552.5"
     inkscape:document-units="px"
     inkscape:current-layer="layer8"
     showgrid="false"
     inkscape:snap-page="false"
     units="px"
     inkscape:object-paths="true"
     inkscape:snap-intersection-paths="true"
     inkscape:object-nodes="true"
     inkscape:snap-bbox="false"
     inkscape:window-width="2560"
     inkscape:window-height="1369"
     inkscape:window-x="-8"
     inkscape:window-y="-8"
     inkscape:window-maximized="1"
     inkscape:snap-nodes="true"
     inkscape:snap-others="false"
     inkscape:showpageshadow="2"
     inkscape:pagecheckerboard="0"
     inkscape:deskcolor="#d1d1d1" /><metadata
     id="metadata7"><rdf:RDF><cc:Work
         rdf:about=""><dc:format>image/svg+xml</dc:format><dc:type
           rdf:resource="http://purl.org/dc/dcmitype/StillImage" /></cc:Work></rdf:RDF></metadata><g
     inkscape:groupmode="layer"
     id="g4801"
     inkscape:label="base"
     style="display:inline"><path
       style="fill:#ffffff;fill-opacity:1;stroke:#000000;stroke-width:2;stroke-miterlimit:4;stroke-dasharray:none;stroke-opacity:1"
       d="M 184.05017,6.5749635 V 108.40113 h -19.51953 v 51.42774 h 17.14257 v 161.42969 h -18.57226 v 48.57031 h 12.85742 v 75.71484 h -45.71484 v 55.71485 H 78.815789 v 55.71289 H 30.243525 v 61.42968 H 7.3861034 V 845.54371 H 35.958369 v 67.14258 H 5.9583694 v 41.42773 H 331.67321 v -41.42773 -67.14258 -51.05078 h 37.23438 v 20.20313 h 437.39648 21.43946 V 554.82887 h 83.92968 12.5 27.5 v -40.71485 h -27.5 V 339.47145 h -12.5 v -5.35743 H 839.53064 V 80.543713 H 823.10095 V 111.25856 H 806.30407 V 6.5749635 H 331.67321 Z"
       id="path4803"
       inkscape:connector-curvature="0" /><rect
       style="fill:#b2c5da;fill-opacity:1;stroke:#000000;stroke-width:2;stroke-miterlimit:4;stroke-dasharray:none;stroke-opacity:1"
       id="rect4805"
       width="68.571426"
       height="41.427731"
       x="5.9583693"
       y="912.68628" /><rect
       style="fill:#b2c5da;fill-opacity:1;stroke:#000000;stroke-width:2;stroke-miterlimit:4;stroke-dasharray:none;stroke-opacity:1"
       id="rect4811"
       width="33.447269"
       height="27.779291"
       x="768.8158"
       y="666.20386" /><rect
       style="fill:#b2c5da;fill-opacity:1;stroke:#000000;stroke-width:2;stroke-miterlimit:4;stroke-dasharray:none;stroke-opacity:1"
       id="rect4819"
       width="18.6875"
       height="37.880859"
       x="618.41541"
       y="232.8484" /><rect
       style="fill:#b2c5da;fill-opacity:1;stroke:#000000;stroke-width:2;stroke-miterlimit:4;stroke-dasharray:none;stroke-opacity:1"
       id="rect4821"
       width="48.487312"
       height="26.76952"
       x="618.41541"
       y="156.07693" /><path
       style="fill:#b2c5da;fill-opacity:1;stroke:#000000;stroke-width:2;stroke-miterlimit:4;stroke-dasharray:none;stroke-opacity:1"
       d="m 163.10095,321.25856 v 48.57031 h 12.85742 v 5.71484 h 5.71484 v -5.71484 -48.57031 z"
       id="path4833"
       inkscape:connector-curvature="0" /><path
       style="fill:#ff8080;fill-opacity:1;stroke:#000000;stroke-width:2;stroke-miterlimit:4;stroke-dasharray:none;stroke-opacity:1"
       d="M 218.89978,353.40058 H 181.67321"
       id="path4835"
       inkscape:connector-curvature="0" /><path
       style="fill:#b2c5da;fill-opacity:1;stroke:#000000;stroke-width:2;stroke-miterlimit:4;stroke-dasharray:none;stroke-opacity:1"
       d="M 768.81551,452.55671 V 554.82887"
       id="path4837"
       inkscape:connector-curvature="0" /><path
       sodipodi:nodetypes="ccccc"
       inkscape:connector-curvature="0"
       id="path4839"
       d="m 519.42041,316.61486 v 6.78572 H 217.38694 v -22.85714 h -35.71373"
       style="fill:none;fill-opacity:1;stroke:#000000;stroke-width:2;stroke-miterlimit:4;stroke-dasharray:none;stroke-opacity:1" /><path
       inkscape:connector-curvature="0"
       id="path4841"
       d="m 519.42041,165.18629 v -14.53892 h 98.99499 v 5.42956"
       style="fill:none;fill-opacity:1;stroke:#000000;stroke-width:2;stroke-miterlimit:4;stroke-dasharray:none;stroke-opacity:1" /><rect
       y="604.11487"
       x="747.74408"
       height="51.071426"
       width="21.071711"
       id="rect4855"
       style="fill:#b2c5da;fill-opacity:1;stroke:#000000;stroke-width:2;stroke-miterlimit:4;stroke-dasharray:none;stroke-opacity:1" /><rect
       y="693.98315"
       x="768.92908"
       height="27.779301"
       width="33.333988"
       id="rect4857"
       style="fill:#b2c5da;fill-opacity:1;stroke:#000000;stroke-width:2;stroke-miterlimit:4;stroke-dasharray:none;stroke-opacity:1" /><path
       inkscape:connector-curvature="0"
       id="path4859"
       d="m 683.5697,323.51051 h 67.68074 v 26.00976"
       style="fill:none;fill-opacity:1;stroke:#000000;stroke-width:2;stroke-miterlimit:4;stroke-dasharray:none;stroke-opacity:1" /></g><g
     inkscape:groupmode="layer"
     id="layer6"
     inkscape:label="rooms"><rect
       style="display:inline;fill:#b2c5da;fill-opacity:1;stroke:#000000;stroke-width:2;stroke-miterlimit:4;stroke-dasharray:none;stroke-opacity:1"
       id="rect4831"
       width="52.857143"
       height="35.71463"
       x="7.3861036"
       y="809.82916"
       inkscape:label="room-VL-202-1" /><g
       id="layer2"
       transform="translate(-20.908347,-22.889839)"><text
         xml:space="preserve"
         style="font-size:12px;writing-mode:lr-tb;direction:ltr;fill:#000000;fill-opacity:1"
         x="36.517014"
         y="846.98761"
         id="text2"><tspan
           id="tspan2"
           x="36.517014"
           y="846.98761"
           sodipodi:role="line"
           style="font-size:12px;fill:#000000;fill-opacity:1">VL-</tspan><tspan
           x="36.517014"
           y="861.98761"
           sodipodi:role="line"
           id="tspan3"
           style="font-size:12px;fill:#000000;fill-opacity:1">202-1</tspan></text></g><rect
       style="display:inline;fill:#b2c5da;fill-opacity:1;stroke:#000000;stroke-width:2;stroke-miterlimit:4;stroke-dasharray:none;stroke-opacity:1"
       id="rect4825"
       width="52.772881"
       height="105.71429"
       x="218.89978"
       y="353.40057"
       inkscape:label="room-VL-202-30" /><text
       xml:space="preserve"
       style="font-size:13.3333px;writing-mode:lr-tb;direction:ltr;fill:#000000;fill-opacity:1;stroke:none;stroke-width:0.00831478;stroke-dasharray:none;stroke-opacity:1"
       x="220.95837"
       y="402.25769"
       id="text4"><tspan
         sodipodi:role="line"
         id="tspan4"
         x="220.95837"
         y="402.25769"
         style="font-size:13.3333px;fill:#000000;fill-opacity:1">VL-</tspan><tspan
         sodipodi:role="line"
         x="220.95837"
         y="418.92432"
         id="tspan5"
         style="font-size:13.3333px;fill:#000000;fill-opacity:1">202-30</tspan></text><path
       inkscape:connector-curvature="0"
       id="path4861"
       d="m 738.11853,153.55152 v 169.95899 h 65.66015 v -20.45703 h 24.74805 V 171.73512 h -24.74805 v -18.1836 z"
       style="display:inline;fill:#b2c5da;fill-opacity:1;stroke:#000000;stroke-width:2;stroke-miterlimit:4;stroke-dasharray:none;stroke-opacity:1"
       inkscape:label="room-VL-205" /><text
       xml:space="preserve"
       style="font-size:18.6667px;writing-mode:lr-tb;direction:ltr;fill:#000000;fill-opacity:1;stroke:none;stroke-width:0.00831478;stroke-dasharray:none;stroke-opacity:1"
       x="749.73523"
       y="241.22441"
       id="text8"><tspan
         sodipodi:role="line"
         id="tspan8"
         x="749.73523"
         y="241.22441"
         style="font-size:18.6667px;fill:#000000;fill-opacity:1">VL-205</tspan></text><path
       inkscape:connector-curvature="0"
       id="path4853"
       d="m 671.19665,439.67652 v 12.88086 33.08203 10.10157 h -49.24609 v 83.73047 16.62695 c 0,32.73483 26.35306,59.08789 59.08789,59.08789 h 14.20508 14.48437 59.08789 v -59.08789 -16.62695 -24.64258 -59.08789 -43.1836 h -65.54687 v -12.88086 z"
       style="display:inline;fill:#b2c5da;fill-opacity:1;stroke:#000000;stroke-width:2;stroke-miterlimit:4;stroke-dasharray:none;stroke-opacity:1"
       inkscape:label="room-VL-201" /><text
       xml:space="preserve"
       style="font-size:18.6667px;writing-mode:lr-tb;direction:ltr;fill:#000000;fill-opacity:1;stroke:none;stroke-width:0.00831478;stroke-dasharray:none;stroke-opacity:1"
       x="662.86212"
       y="560.43262"
       id="text9"><tspan
         sodipodi:role="line"
         id="tspan9"
         x="662.86212"
         y="560.43262">VL-201</tspan></text><path
       style="display:inline;fill:#b2c5da;fill-opacity:1;stroke:#000000;stroke-width:2;stroke-miterlimit:4;stroke-dasharray:none;stroke-opacity:1"
       d="m 768.81579,611.97145 v 54.23242 h 33.44727 v 55.55859 h 25.48047 v -55.55859 -54.23242 z"
       id="path4809"
       inkscape:connector-curvature="0"
       inkscape:label="room-VL-297-1" /><text
       xml:space="preserve"
       style="font-size:14.6667px;writing-mode:lr-tb;direction:ltr;fill:#000000;fill-opacity:1;stroke:none;stroke-width:0.00831478;stroke-dasharray:none;stroke-opacity:1"
       x="777.00934"
       y="635.1839"
       id="text10"><tspan
         sodipodi:role="line"
         id="tspan10"
         x="777.00934"
         y="635.1839"
         style="font-size:14.6667px;fill:#000000;fill-opacity:1">VL-</tspan><tspan
         sodipodi:role="line"
         x="777.00934"
         y="653.51727"
         id="tspan11"
         style="font-size:14.6667px;fill:#000000;fill-opacity:1">297-1</tspan></text><path
       inkscape:connector-curvature="0"
       id="path4807"
       d="m 740.60095,713.04371 v 28.41602 h 28.32617 v 73.23633 h 58.81641 v -92.9336 h -58.81446 v -8.71875 z"
       style="display:inline;fill:#b2c5da;fill-opacity:1;stroke:#000000;stroke-width:2;stroke-miterlimit:4;stroke-dasharray:none;stroke-opacity:1"
       inkscape:label="room-VL-240" /><text
       xml:space="preserve"
       style="font-size:18.6667px;writing-mode:lr-tb;direction:ltr;fill:#000000;fill-opacity:1;stroke:none;stroke-width:0.00831478;stroke-dasharray:none;stroke-opacity:1"
       x="781.04993"
       y="766.50372"
       id="text12"><tspan
         sodipodi:role="line"
         id="tspan12"
         x="781.04993"
         y="766.50372"
         style="font-size:18.6667px;fill:#000000;fill-opacity:1">VL-</tspan><tspan
         sodipodi:role="line"
         x="781.04993"
         y="789.8371"
         id="tspan13"
         style="font-size:18.6667px;fill:#000000;fill-opacity:1">240</tspan></text><rect
       y="447.00089"
       x="621.95093"
       height="48.739838"
       width="49.24493"
       id="rect4851"
       style="display:inline;fill:#b2c5da;fill-opacity:1;stroke:#000000;stroke-width:2;stroke-miterlimit:4;stroke-dasharray:none;stroke-opacity:1"
       inkscape:label="room-VL-201-1" /><text
       xml:space="preserve"
       style="font-size:13.3333px;writing-mode:lr-tb;direction:ltr;fill:#000000;fill-opacity:1;stroke:none;stroke-width:0.00831478;stroke-dasharray:none;stroke-opacity:1"
       x="627.50677"
       y="468.50876"
       id="text14"><tspan
         sodipodi:role="line"
         id="tspan14"
         x="627.50677"
         y="468.50876"
         style="font-size:13.3333px;fill:#000000;fill-opacity:1">VL-</tspan><tspan
         sodipodi:role="line"
         x="627.50677"
         y="485.17538"
         id="tspan15"
         style="font-size:13.3333px;fill:#000000;fill-opacity:1">201-1</tspan></text><rect
       y="397.75592"
       x="621.95093"
       height="49.244961"
       width="36.113007"
       id="rect4849"
       style="display:inline;fill:#b2c5da;fill-opacity:1;stroke:#000000;stroke-width:2;stroke-miterlimit:4;stroke-dasharray:none;stroke-opacity:1"
       inkscape:label="room-VL-203-1" /><text
       xml:space="preserve"
       style="font-size:10.6667px;writing-mode:lr-tb;direction:ltr;fill:#000000;fill-opacity:1;stroke:none;stroke-width:0.00831478;stroke-dasharray:none;stroke-opacity:1"
       x="624.47632"
       y="418.0011"
       id="text16"><tspan
         sodipodi:role="line"
         id="tspan16"
         x="624.47632"
         y="418.0011"
         style="font-size:10.6667px;fill:#000000;fill-opacity:1">VL-</tspan><tspan
         sodipodi:role="line"
         x="624.47632"
         y="431.33447"
         id="tspan17"
         style="font-size:10.6667px;fill:#000000;fill-opacity:1">203-1</tspan></text><rect
       y="349.52026"
       x="621.95093"
       height="48.235657"
       width="36.11298"
       id="rect4847"
       style="display:inline;fill:#b2c5da;fill-opacity:1;stroke:#000000;stroke-width:2;stroke-miterlimit:4;stroke-dasharray:none;stroke-opacity:1"
       inkscape:label="room-VL-203-2" /><text
       xml:space="preserve"
       style="font-size:10.6667px;writing-mode:lr-tb;direction:ltr;fill:#000000;fill-opacity:1;stroke:none;stroke-width:0.00831478;stroke-dasharray:none;stroke-opacity:1"
       x="624.47632"
       y="370.52393"
       id="text18"><tspan
         sodipodi:role="line"
         id="tspan18"
         x="624.47632"
         y="370.52393">VL-</tspan><tspan
         sodipodi:role="line"
         x="624.47632"
         y="383.8573"
         id="tspan19">203-2</tspan></text><path
       inkscape:connector-curvature="0"
       id="path4843"
       d="m 693.92517,349.52027 v 34.22071 h 9.34375 v 68.8164 h 65.54687 V 349.52027 h -65.54687 z"
       style="display:inline;fill:#b2c5da;fill-opacity:1;stroke:#000000;stroke-width:2;stroke-miterlimit:4;stroke-dasharray:none;stroke-opacity:1"
       inkscape:label="room-VL-204" /><text
       xml:space="preserve"
       style="font-size:16px;writing-mode:lr-tb;direction:ltr;fill:#000000;fill-opacity:1;stroke:none;stroke-width:0.00831478;stroke-dasharray:none;stroke-opacity:1"
       x="708.31897"
       y="407.8996"
       id="text20"><tspan
         sodipodi:role="line"
         id="tspan20"
         x="708.31897"
         y="407.8996"
         style="font-size:16px;fill:#000000;fill-opacity:1">VL-204</tspan></text><path
       inkscape:connector-curvature="0"
       id="path4845"
       d="m 658.06384,349.52027 v 34.22071 1.13476 54.80078 h 45.20508 v -55.93554 h -9.34375 v -34.22071 z"
       style="display:inline;fill:#b2c5da;fill-opacity:1;stroke:#000000;stroke-width:2;stroke-miterlimit:4;stroke-dasharray:none;stroke-opacity:1"
       inkscape:label="room-VL-203-3" /><text
       xml:space="preserve"
       style="font-size:12px;writing-mode:lr-tb;direction:ltr;fill:#000000;fill-opacity:1;stroke:none;stroke-width:0.00831478;stroke-dasharray:none;stroke-opacity:1"
       x="663.87225"
       y="401.83868"
       id="text21"><tspan
         sodipodi:role="line"
         id="tspan21"
         x="663.87225"
         y="401.83868"
         style="font-size:12px;fill:#000000;fill-opacity:1">VL-</tspan><tspan
         sodipodi:role="line"
         x="663.87225"
         y="416.83868"
         id="tspan22"
         style="font-size:12px;fill:#000000;fill-opacity:1">203-3</tspan></text></g><g
     inkscape:groupmode="layer"
     id="layer7"
     inkscape:label="walkable"><path
       style="fill:#4c6daf;fill-opacity:0;stroke:none;stroke-width:0.00831478;stroke-dasharray:none;stroke-opacity:1"
       d="m 804.78259,304.0652 h 33.73828 v 31.0625 h 72.14844 v 5.35546 h 12.5 v 174.64063 h 27.5 v 38.69922 H 826.7279 v 57.13672 H 769.82556 V 348.5027 h -17.5625 v -23.98047 h 52.52343 z"
       id="path25"
       inkscape:label="walkable-1" /><path
       style="fill:#4c6daf;fill-opacity:0;stroke:none;stroke-width:0.00831478;stroke-dasharray:none;stroke-opacity:1"
       d="M 518.41931,149.63551 V 7.5886355 h 286.875 V 112.28004 h 18.82031 V 81.553478 h 14.40234 V 304.05738 h -8.98047 V 170.71754 H 804.7904 V 152.53395 H 737.10358 V 322.49879 H 684.57946 V 181.83082 H 667.91149 V 155.0652 h -48.48437 c 0,0 0.008,-5.43314 0,-5.4375 -0.008,-0.004 -101.00781,0.008 -101.00781,0.008 z"
       id="path26"
       inkscape:label="walkable-2" /><path
       style="fill:#4c6daf;fill-opacity:0;stroke:none;stroke-width:0.00831478;stroke-dasharray:none;stroke-opacity:1"
       d="m 182.67712,354.40895 h 35.21875 v 20.1289 h -35.21484 z"
       id="path27"
       inkscape:label="walkable-3" /><path
       style="fill:#4c6daf;fill-opacity:0;stroke:none;stroke-width:0.00831478;stroke-dasharray:none;stroke-opacity:1"
       d="m 182.67712,352.39332 h 438.21875 v -3.90625 H 750.23962 V 324.51832 H 617.39978 V 151.65504 h -96.97266 v 12.52344 h 47.25391 V 317.6316 h -47.25 v 6.78125 h -304.0586 v -22.85937 h -33.69531 z"
       id="path28"
       inkscape:label="walkable-4" /><path
       style="fill:#4c6daf;fill-opacity:0;stroke:none;stroke-width:0.00831478;stroke-dasharray:none;stroke-opacity:1"
       d="M 518.41149,322.39723 V 7.5886355 H 185.05993 V 109.41285 H 165.5404 v 49.41016 h 17.14453 v 140.71094 h 35.71485 v 22.85937 z"
       id="path29"
       inkscape:label="walkable-5" /><path
       style="fill:#4c6daf;fill-opacity:0;stroke:none;stroke-width:0.00831478;stroke-dasharray:none;stroke-opacity:1"
       d="M 330.66149,953.10426 V 352.39723 h -57.97656 v 107.74218 h -52.77734 v 74.27344 H 179.58728 V 502.26832 H 79.825559 v 55.71484 H 31.251338 v 61.4336 H 8.3958694 V 808.8191 H 61.251338 v 37.7461 H 36.962275 v 65.11718 h 38.574219 v 41.42188 z"
       id="path30"
       inkscape:label="walkable-6" /><path
       style="fill:#4c6daf;fill-opacity:0;stroke:none;stroke-width:0.00831478;stroke-dasharray:none;stroke-opacity:1"
       d="M 620.89196,352.41676 V 813.67848 H 369.92712 V 793.47535 H 330.67321 V 352.40113 Z"
       id="path31"
       inkscape:label="walkable-7" /><path
       style="fill:#4c6daf;fill-opacity:0;stroke:none;stroke-width:0.00831478;stroke-dasharray:none;stroke-opacity:1"
       d="M 767.80212,656.20191 H 620.89978 v 157.47266 h 106.90625 v -73.22656 h 11.78125 v -28.42578 h 28.33203 V 695.0027 h -0.1211 z"
       id="path32"
       inkscape:label="walkable-8" /><path
       style="fill:#4c6daf;fill-opacity:0;stroke:none;stroke-width:0.00831478;stroke-dasharray:none;stroke-opacity:1"
       d="m 670.35681,656.17848 -11.27344,-3.74219 -8.5,-4 -7.4375,-5.25 -5.375,-4.875 -3,-3.3125 -2.9375,-3.875 -4.1875,-6.84375 -2.65625,-5.65625 -1.96875,-5.90625 -1.21875,-5.28125 -0.84375,-6.0625 v 54.80859 z"
       id="path33"
       inkscape:label="walkable-9" /></g><g
     inkscape:groupmode="layer"
     id="layer8"
     inkscape:label="points-of-interest"><rect
       style="display:inline;fill:#b2c5da;fill-opacity:1;stroke:#000000;stroke-width:2;stroke-miterlimit:4;stroke-dasharray:none;stroke-opacity:1"
       id="rect4829"
       width="38.298561"
       height="32.142056"
       x="180.60124"
       y="501.25854"
       inkscape:label="elevator-1" /><path
       style="display:inline;fill:#b2c5da;fill-opacity:1;stroke:#000000;stroke-width:2;stroke-miterlimit:4;stroke-dasharray:none;stroke-opacity:1"
       d="m 175.95837,375.54371 v 70 h -45.71484 v 55.71485 h 45.71484 42.94141 V 375.54371 Z"
       id="path4827"
       inkscape:connector-curvature="0"
       inkscape:label="stairs-1" /><rect
       style="display:inline;fill:#b2c5da;fill-opacity:1;stroke:#000000;stroke-width:2;stroke-miterlimit:4;stroke-dasharray:none;stroke-opacity:1"
       id="rect4823"
       width="47.25222"
       height="151.42857"
       x="519.42041"
       y="165.18629"
       inkscape:label="stairs-3" /><path
       style="display:inline;fill:#b2c5da;fill-opacity:1;stroke:#000000;stroke-width:2;stroke-miterlimit:4;stroke-dasharray:none;stroke-opacity:1"
       d="m 618.4154,182.84645 v 50.00195 h 18.6875 v 20.70898 h 46.4668 v -70.71093 z"
       id="path4817"
       inkscape:connector-curvature="0"
       inkscape:label="washroomMale-1" /><text
       xml:space="preserve"
       style="font-size:14.6667px;writing-mode:lr-tb;direction:ltr;fill:#000000;fill-opacity:1;stroke:none;stroke-width:0.00831478;stroke-dasharray:none;stroke-opacity:1"
       x="624.47632"
       y="199.80818"
       id="text6"><tspan
         sodipodi:role="line"
         id="tspan6"
         x="624.47632"
         y="199.80818"
         style="font-size:14.6667px;fill:#000000;fill-opacity:1">VL-212</tspan></text><path
       style="display:inline;fill:#b2c5da;fill-opacity:1;stroke:#000000;stroke-width:2;stroke-miterlimit:4;stroke-dasharray:none;stroke-opacity:1"
       d="m 637.1029,253.55738 v 17.17188 h -18.6875 v 52.78125 h 65.1543 v -69.95313 z"
       id="path4815"
       inkscape:connector-curvature="0"
       inkscape:label="washroomFemale-1" /><text
       xml:space="preserve"
       style="font-size:14.6667px;writing-mode:lr-tb;direction:ltr;fill:#000000;fill-opacity:1;stroke:none;stroke-width:0.00831478;stroke-dasharray:none;stroke-opacity:1"
       x="624.47632"
       y="316.98587"
       id="text7"><tspan
         sodipodi:role="line"
         id="tspan7"
         x="624.47632"
         y="316.98587">VL-210</tspan></text><rect
       style="display:inline;fill:#b2c5da;fill-opacity:1;stroke:#000000;stroke-width:2;stroke-miterlimit:4;stroke-dasharray:none;stroke-opacity:1"
       id="rect4813"
       width="40.112305"
       height="73.23571"
       x="728.8158"
       y="741.46033"
       inkscape:label="stairs-2" /><path
       fill="currentColor"
       d="m 185.66619,422.71773 h 8.77076 v -6.59046 h 5.10389 v -6.59046 h 5.10389 v -6.64001 h 4.80657 v -3.96418 h -8.77076 v 6.59046 h -5.10389 v 6.59045 h -5.10389 v 6.64001 h -4.80657 z m -1.98209,5.94628 q -1.63523,0 -2.79872,-1.16349 -1.16349,-1.16349 -1.16547,-2.8007 v -27.74929 q 0,-1.63523 1.16547,-2.79872 1.16547,-1.16349 2.79872,-1.16547 h 27.74929 q 1.63523,0 2.8007,1.16547 1.16547,1.16547 1.16349,2.79872 v 27.74929 q 0,1.63523 -1.16349,2.8007 -1.16349,1.16547 -2.8007,1.16349 z"
       id="path1-09"
       style="stroke-width:1.98209" /><path
       fill="currentColor"
       d="m 531.18765,248.59767 h 9.11842 v -6.8517 h 5.3062 v -6.85169 h 5.3062 v -6.90321 h 4.9971 v -4.12132 h -9.11842 v 6.8517 h -5.3062 v 6.85169 h -5.30621 v 6.90321 h -4.99709 z m -2.06066,6.18198 q -1.70005,0 -2.90966,-1.20961 -1.20961,-1.2096 -1.21166,-2.91171 V 221.8091 q 0,-1.70005 1.21166,-2.90966 1.21167,-1.20961 2.90966,-1.21167 h 28.84923 q 1.70005,0 2.91172,1.21167 1.21167,1.21167 1.20961,2.90966 v 28.84923 q 0,1.70005 -1.20961,2.91171 -1.20961,1.21167 -2.91172,1.20961 z"
       id="path1-09-8"
       style="stroke-width:2.06066" /><path
       fill="currentColor"
       d="m 738.13876,789.742 h 7.90161 v -5.93737 h 4.59811 v -5.93736 h 4.59812 v -5.98201 h 4.33025 v -3.57135 h -7.90161 v 5.93737 h -4.59811 v 5.93737 h -4.59812 v 5.98201 h -4.33025 z m -1.78568,5.35702 q -1.47317,0 -2.52137,-1.04819 -1.04819,-1.04818 -1.04997,-2.52315 v -24.99943 q 0,-1.47319 1.04997,-2.52138 1.04997,-1.04819 2.52137,-1.04998 h 24.99944 q 1.47319,0 2.52316,1.04998 1.04998,1.04998 1.04819,2.52138 v 24.99943 q 0,1.47318 -1.04819,2.52315 -1.0482,1.04998 -2.52316,1.04819 z"
       id="path1-09-8-2"
       style="stroke-width:1.78568" /><path
       fill="currentColor"
       d="m 192.70369,525.48003 h 3.94281 v -5.25707 h 1.31427 v -3.28568 q 0,-1.08427 -0.77148,-1.85575 -0.77148,-0.77147 -1.85706,-0.77279 h -1.31427 q -1.08427,0 -1.85575,0.77279 -0.77148,0.77279 -0.77279,1.85575 v 3.28568 h 1.31427 z m 3.13847,-12.96132 q 0.47577,-0.47708 0.47577,-1.16707 0,-0.69 -0.47708,-1.16708 -0.47708,-0.47708 -1.16576,-0.47576 -0.68867,10e-4 -1.16707,0.47708 -0.47839,0.47576 -0.47576,1.16576 0.003,0.68999 0.47708,1.16707 0.47445,0.47708 1.16575,0.47576 0.69131,-10e-4 1.16707,-0.47708 m 4.74715,3.76276 h 6.57134 l -3.28567,-5.25708 z m 3.28567,7.88562 3.28567,-5.25708 h -6.57134 z m -13.79983,5.25707 q -1.08427,0 -1.85575,-0.77147 -0.77148,-0.77148 -0.77279,-1.85707 v -18.39977 q 0,-1.08427 0.77279,-1.85575 0.77279,-0.77148 1.85575,-0.77279 h 18.39977 q 1.08428,0 1.85707,0.77279 0.77279,0.77279 0.77147,1.85575 v 18.39977 q 0,1.08428 -0.77147,1.85707 -0.77148,0.77279 -1.85707,0.77147 z"
       id="path1-4"
       style="stroke-width:1.31427" /><path
       fill="currentColor"
       d="m 660.85374,242.59634 v -11.30329 h -1.88389 q -0.80065,0 -1.34132,-0.54256 -0.54068,-0.54256 -0.54256,-1.34133 v -9.41941 q 0,-1.55421 1.10772,-2.66005 1.10773,-1.10584 2.66005,-1.10772 h 7.53553 q 1.5542,0 2.66192,1.10772 1.10773,1.10773 1.10584,2.66005 v 9.41941 q 0,0.80065 -0.54255,1.34321 -0.54256,0.54256 -1.34133,0.54068 h -1.88388 v 11.30329 q 0,0.80065 -0.54256,1.34321 -0.54256,0.54256 -1.34132,0.54068 h -3.76777 q -0.80065,0 -1.34133,-0.54256 -0.54067,-0.54256 -0.54255,-1.34133 m 3.76776,-28.25824 q -1.5542,0 -2.66004,-1.10584 -1.10584,-1.10584 -1.10772,-2.66193 -0.002,-1.55609 1.10772,-2.66004 1.10961,-1.10396 2.66004,-1.10772 1.55044,-0.004 2.66193,1.10772 1.11149,1.11149 1.10584,2.66004 -0.006,1.54855 -1.10584,2.66193 -1.10019,1.11337 -2.66193,1.10584"
       id="path1"
       style="stroke-width:1.88388" /><path
       fill="currentColor"
       d="m 660.20086,297.33646 v -9.41941 h -2.87292 q -0.98904,0 -1.5542,-0.82326 -0.56517,-0.82326 -0.18839,-1.76708 l 4.70971,-11.91556 q 0.47097,-1.13033 1.46001,-1.78969 0.98904,-0.65936 2.21356,-0.65936 1.22453,0 2.21356,0.65936 0.98904,0.65936 1.46001,1.78969 l 4.70971,11.91556 q 0.37678,0.94194 -0.18839,1.76708 -0.56516,0.82514 -1.5542,0.82326 h -2.87292 v 9.41941 q 0,0.80065 -0.54256,1.34321 -0.54256,0.54256 -1.34133,0.54068 h -3.76776 q -0.80065,0 -1.34133,-0.54256 -0.54067,-0.54256 -0.54256,-1.34133 m 1.10773,-29.36408 q -1.10773,-1.10773 -1.10773,-2.66193 0,-1.55421 1.10773,-2.66005 1.10772,-1.10583 2.66004,-1.10772 1.55232,-0.002 2.66193,1.10772 1.10961,1.10961 1.10584,2.66005 -0.004,1.55043 -1.10584,2.66193 -1.10207,1.11149 -2.66193,1.10583 -1.55985,-0.006 -2.66004,-1.10583"
       id="path1-5"
       style="stroke-width:1.88388" /></g><g
     inkscape:groupmode="layer"
     id="layer9"
     inkscape:label="connectors"><ellipse
       style="display:inline;fill:#ffffff;fill-opacity:0"
       id="path118-13-182"
       cx="60.479534"
       cy="827.30927"
       rx="4.9497476"
       ry="5.4800777"
       inkscape:label="door-vl2-202-1"
       inkscape:transform-center-x="48.790368"
       inkscape:transform-center-y="10.253048" /><ellipse
       style="display:inline;fill:#ffffff;fill-opacity:0"
       id="path118-13-182-5"
       cx="199.90811"
       cy="534.0235"
       rx="4.9497476"
       ry="5.4800777"
       inkscape:label="door-vl2-elevator-1"
       inkscape:transform-center-x="48.790368"
       inkscape:transform-center-y="10.253048" /><ellipse
       style="display:inline;fill:#ffffff;fill-opacity:0"
       id="path118-13-182-2"
       cx="245.62241"
       cy="459.16635"
       rx="4.9497476"
       ry="5.4800777"
       inkscape:label="door-vl2-202-30"
       inkscape:transform-center-x="48.790368"
       inkscape:transform-center-y="10.253048" /><ellipse
       style="display:inline;fill:#ffffff;fill-opacity:0"
       id="path118-13-182-1"
       cx="219.19383"
       cy="481.3092"
       rx="4.9497476"
       ry="5.4800777"
       inkscape:label="door-vl2-stairs-1"
       inkscape:transform-center-x="48.790368"
       inkscape:transform-center-y="10.253048" /><ellipse
       style="display:inline;fill:#ffffff;fill-opacity:0"
       id="path118-13-182-4"
       cx="729.33673"
       cy="757.0235"
       rx="4.9497476"
       ry="5.4800777"
       inkscape:label="door-vl2-stairs-2"
       inkscape:transform-center-x="48.790368"
       inkscape:transform-center-y="10.253048" /><ellipse
       style="display:inline;fill:#ffffff;fill-opacity:0"
       id="path118-13-182-6"
       cx="740.19385"
       cy="726.88068"
       rx="4.9497476"
       ry="5.4800777"
       inkscape:label="door-vl2-240"
       inkscape:transform-center-x="48.790368"
       inkscape:transform-center-y="10.253048" /><ellipse
       style="display:inline;fill:#ffffff;fill-opacity:0"
       id="path118-13-182-8"
       cx="798.90814"
       cy="610.59497"
       rx="4.9497476"
       ry="5.4800777"
       inkscape:label="door-vl2-297-1"
       inkscape:transform-center-x="48.790368"
       inkscape:transform-center-y="10.253048" /><ellipse
       style="display:inline;fill:#ffffff;fill-opacity:0"
       id="path118-13-182-84"
       cx="542.76526"
       cy="316.3092"
       rx="4.9497476"
       ry="5.4800777"
       inkscape:label="door-vl2-stairs-3"
       inkscape:transform-center-x="48.790368"
       inkscape:transform-center-y="10.253048" /><ellipse
       style="display:inline;fill:#ffffff;fill-opacity:0"
       id="path118-13-182-43"
       cx="621.76526"
       cy="472.59491"
       rx="4.9497476"
       ry="5.4800777"
       inkscape:label="door-vl2-201-1"
       inkscape:transform-center-x="48.790368"
       inkscape:transform-center-y="10.253048" /><ellipse
       style="display:inline;fill:#ffffff;fill-opacity:0"
       id="path118-13-182-88"
       cx="621.19385"
       cy="422.59491"
       rx="4.9497476"
       ry="5.4800777"
       inkscape:label="door-vl2-203-1"
       inkscape:transform-center-x="48.790368"
       inkscape:transform-center-y="10.253048" /><ellipse
       style="display:inline;fill:#ffffff;fill-opacity:0"
       id="path118-13-182-87"
       cx="621.47955"
       cy="373.3092"
       rx="4.9497476"
       ry="5.4800777"
       inkscape:label="door-vl2-203-2"
       inkscape:transform-center-x="48.790368"
       inkscape:transform-center-y="10.253048" /><ellipse
       style="display:inline;fill:#ffffff;fill-opacity:0"
       id="path118-13-182-83"
       cx="675.47955"
       cy="349.0235"
       rx="4.9497476"
       ry="5.4800777"
       inkscape:label="door-vl2-203-3"
       inkscape:transform-center-x="48.790368"
       inkscape:transform-center-y="10.253048" /><ellipse
       style="display:inline;fill:#ffffff;fill-opacity:0"
       id="path118-13-182-3"
       cx="722.47955"
       cy="349.73779"
       rx="4.9497476"
       ry="5.4800777"
       inkscape:label="door-vl2-204"
       inkscape:transform-center-x="48.790368"
       inkscape:transform-center-y="10.253048" /><ellipse
       style="display:inline;fill:#ffffff;fill-opacity:0"
       id="path118-13-182-10"
       cx="738.05103"
       cy="233.30922"
       rx="4.9497476"
       ry="5.4800777"
       inkscape:label="door-vl2-205"
       inkscape:transform-center-x="48.790368"
       inkscape:transform-center-y="10.253048" /><ellipse
       style="display:inline;fill:#ffffff;fill-opacity:0"
       id="path118-13-182-34"
       cx="618.19385"
       cy="283.16635"
       rx="4.9497476"
       ry="5.4800777"
       inkscape:label="door-vl2-washroomFemale-1"
       inkscape:transform-center-x="48.790368"
       inkscape:transform-center-y="10.253048" /><ellipse
       style="display:inline;fill:#ffffff;fill-opacity:0"
       id="path118-13-182-65"
       cx="618.05103"
       cy="219.88065"
       rx="4.9497476"
       ry="5.4800777"
       inkscape:label="door-vl2-washroomMale-1"
       inkscape:transform-center-x="48.790368"
       inkscape:transform-center-y="10.253048" /><ellipse
       style="display:inline;fill:#ffffff;fill-opacity:0"
       id="path118-13-182-0"
       cx="769.05103"
       cy="497.88068"
       rx="4.9497476"
       ry="5.4800777"
       inkscape:label="door-vl2-201"
       inkscape:transform-center-x="48.790368"
       inkscape:transform-center-y="10.253048" /></g></svg>
