<?xml version="1.0" encoding="UTF-8" standalone="no"?>
<!-- Created with Inkscape (http://www.inkscape.org/) -->

<svg
   width="1024"
   height="1024"
   viewBox="0 0 1024 1024"
   id="svg2"
   version="1.1"
   inkscape:version="1.4.3 (0d15f75, 2025-12-25)"
   sodipodi:docname="VL-2.svg"
   inkscape:export-filename="G:\SOEN 390 Floorplans\VL-2.png"
   inkscape:export-xdpi="90"
   inkscape:export-ydpi="90"
   xml:space="preserve"
   xmlns:inkscape="http://www.inkscape.org/namespaces/inkscape"
   xmlns:sodipodi="http://sodipodi.sourceforge.net/DTD/sodipodi-0.dtd"
   xmlns="http://www.w3.org/2000/svg"
   xmlns:svg="http://www.w3.org/2000/svg"
   xmlns:rdf="http://www.w3.org/1999/02/22-rdf-syntax-ns#"
   xmlns:cc="http://creativecommons.org/ns#"
   xmlns:dc="http://purl.org/dc/elements/1.1/"><defs
     id="defs4" /><sodipodi:namedview
     id="base"
     pagecolor="#ffffff"
     bordercolor="#666666"
     borderopacity="1.0"
     inkscape:pageopacity="0.0"
     inkscape:pageshadow="2"
     inkscape:zoom="0.70710678"
     inkscape:cx="422.14275"
     inkscape:cy="591.14127"
     inkscape:document-units="px"
     inkscape:current-layer="layer9"
     showgrid="false"
     inkscape:snap-page="false"
     units="px"
     inkscape:object-paths="true"
     inkscape:snap-intersection-paths="true"
     inkscape:object-nodes="true"
     inkscape:snap-bbox="false"
     inkscape:window-width="1278"
     inkscape:window-height="1360"
     inkscape:window-x="-7"
     inkscape:window-y="0"
     inkscape:window-maximized="0"
     inkscape:snap-nodes="true"
     inkscape:snap-others="false"
     inkscape:showpageshadow="2"
     inkscape:pagecheckerboard="0"
     inkscape:deskcolor="#d1d1d1" /><metadata
     id="metadata7"><rdf:RDF><cc:Work
         rdf:about=""><dc:format>image/svg+xml</dc:format><dc:type
           rdf:resource="http://purl.org/dc/dcmitype/StillImage" /><dc:title /></cc:Work></rdf:RDF></metadata><g
     inkscape:groupmode="layer"
     id="g4801"
     inkscape:label="base"
     style="display:inline"><path
       style="fill:#f7d6d6;fill-opacity:1;stroke:#000000;stroke-width:2;stroke-miterlimit:4;stroke-dasharray:none;stroke-opacity:1"
       d="m 208.0918,17.888672 0,101.826168 -19.51953,0 0,51.42774 17.14257,0 0,161.42969 -18.57226,0 0,48.57031 12.85742,0 0,75.71484 -45.71484,0 0,55.71485 -51.42774,0 0,55.71289 -48.572264,0 0,61.42968 -22.857422,0 0,227.14258 28.572266,0 0,67.14258 -30,0 0,41.42773 325.71484,0 0,-41.42773 0,-67.14258 0,-51.05078 37.23438,0 0,20.20313 437.39648,0 21.43946,0 0,-259.86719 83.92968,0 12.5,0 27.5,0 0,-40.71485 -27.5,0 0,-174.64257 -12.5,0 0,-5.35743 -72.14257,0 0,-253.570308 -16.42969,0 0,30.714848 -16.79688,0 0,-104.683598 -474.63086,0 -147.62304,0 z"
       id="path4803"
       inkscape:connector-curvature="0" /><rect
       style="fill:#da3636;fill-opacity:1;stroke:#000000;stroke-width:2;stroke-miterlimit:4;stroke-dasharray:none;stroke-opacity:1"
       id="rect4805"
       width="68.571426"
       height="41.427731"
       x="30"
       y="924" /><rect
       style="fill:#da3636;fill-opacity:1;stroke:#000000;stroke-width:2;stroke-miterlimit:4;stroke-dasharray:none;stroke-opacity:1"
       id="rect4811"
       width="33.447269"
       height="27.779291"
       x="792.85742"
       y="677.51758" /><rect
       style="fill:#da3636;fill-opacity:1;stroke:#000000;stroke-width:2;stroke-miterlimit:4;stroke-dasharray:none;stroke-opacity:1"
       id="rect4819"
       width="18.6875"
       height="37.880859"
       x="642.45703"
       y="244.16211" /><rect
       style="fill:#da3636;fill-opacity:1;stroke:#000000;stroke-width:2;stroke-miterlimit:4;stroke-dasharray:none;stroke-opacity:1"
       id="rect4821"
       width="48.487312"
       height="26.76952"
       x="642.45703"
       y="167.39064" /><path
       style="fill:#da3636;fill-opacity:1;stroke:#000000;stroke-width:2;stroke-miterlimit:4;stroke-dasharray:none;stroke-opacity:1"
       d="m 187.14258,332.57227 0,48.57031 12.85742,0 0,5.71484 5.71484,0 0,-5.71484 0,-48.57031 -18.57226,0 z"
       id="path4833"
       inkscape:connector-curvature="0" /><path
       style="fill:#ff8080;fill-opacity:1;stroke:#000000;stroke-width:2;stroke-miterlimit:4;stroke-dasharray:none;stroke-opacity:1"
       d="m 242.94141,364.71429 -37.22657,0"
       id="path4835"
       inkscape:connector-curvature="0" /><path
       style="fill:#da3636;fill-opacity:1;stroke:#000000;stroke-width:2;stroke-miterlimit:4;stroke-dasharray:none;stroke-opacity:1"
       d="m 792.85714,463.87042 0,102.27216"
       id="path4837"
       inkscape:connector-curvature="0" /><path
       sodipodi:nodetypes="ccccc"
       inkscape:connector-curvature="0"
       id="path4839"
       d="m 543.46204,327.92857 0,6.78572 -302.03347,0 0,-22.85714 -35.71373,0"
       style="fill:none;fill-opacity:1;stroke:#000000;stroke-width:2;stroke-miterlimit:4;stroke-dasharray:none;stroke-opacity:1" /><path
       inkscape:connector-curvature="0"
       id="path4841"
       d="m 543.46204,176.5 0,-14.53892 98.99499,0 0,5.42956"
       style="fill:none;fill-opacity:1;stroke:#000000;stroke-width:2;stroke-miterlimit:4;stroke-dasharray:none;stroke-opacity:1" /><rect
       y="615.42859"
       x="771.78571"
       height="51.071426"
       width="21.071711"
       id="rect4855"
       style="fill:#da3636;fill-opacity:1;stroke:#000000;stroke-width:2;stroke-miterlimit:4;stroke-dasharray:none;stroke-opacity:1" /><rect
       y="705.29688"
       x="792.9707"
       height="27.779301"
       width="33.333988"
       id="rect4857"
       style="fill:#da3636;fill-opacity:1;stroke:#000000;stroke-width:2;stroke-miterlimit:4;stroke-dasharray:none;stroke-opacity:1" /><path
       inkscape:connector-curvature="0"
       id="path4859"
       d="m 707.61133,334.82422 67.68074,0 0,26.00976"
       style="fill:none;fill-opacity:1;stroke:#000000;stroke-width:2;stroke-miterlimit:4;stroke-dasharray:none;stroke-opacity:1" /></g><g
     inkscape:groupmode="layer"
     id="layer6"
     inkscape:label="rooms"><rect
       style="display:inline;fill:#da3636;fill-opacity:1;stroke:#000000;stroke-width:2;stroke-miterlimit:4;stroke-dasharray:none;stroke-opacity:1"
       id="rect4831"
       width="52.857143"
       height="35.71463"
       x="31.427734"
       y="821.14288"
       inkscape:label="room-VL2-202-1" /><g
       id="layer2"
       transform="translate(3.1332833,-11.57613)"><text
         xml:space="preserve"
         style="font-size:12px;writing-mode:lr-tb;direction:ltr;fill:#ffffff"
         x="36.517014"
         y="846.98761"
         id="text2"><tspan
           id="tspan2"
           x="36.517014"
           y="846.98761"
           sodipodi:role="line"
           style="font-size:12px">VL-</tspan><tspan
           x="36.517014"
           y="861.98761"
           sodipodi:role="line"
           id="tspan3"
           style="font-size:12px">202-1</tspan></text></g><rect
       style="display:inline;fill:#da3636;fill-opacity:1;stroke:#000000;stroke-width:2;stroke-miterlimit:4;stroke-dasharray:none;stroke-opacity:1"
       id="rect4825"
       width="52.772881"
       height="105.71429"
       x="242.94141"
       y="364.71429"
       inkscape:label="room-VL2-202-30" /><text
       xml:space="preserve"
       style="font-size:13.3333px;writing-mode:lr-tb;direction:ltr;fill:#ffffff;fill-opacity:1;stroke:none;stroke-width:0.00831478;stroke-dasharray:none;stroke-opacity:1"
       x="245"
       y="413.57141"
       id="text4"><tspan
         sodipodi:role="line"
         id="tspan4"
         x="245"
         y="413.57141"
         style="font-size:13.3333px">VL-</tspan><tspan
         sodipodi:role="line"
         x="245"
         y="430.23804"
         id="tspan5"
         style="font-size:13.3333px">202-30</tspan></text><path
       inkscape:connector-curvature="0"
       id="path4861"
       d="m 762.16016,164.86523 0,169.95899 65.66015,0 0,-20.45703 24.74805,0 0,-131.31836 -24.74805,0 0,-18.1836 -65.66015,0 z"
       style="display:inline;fill:#da3636;fill-opacity:1;stroke:#000000;stroke-width:2;stroke-miterlimit:4;stroke-dasharray:none;stroke-opacity:1"
       inkscape:label="room-VL2-205" /><text
       xml:space="preserve"
       style="font-size:18.6667px;writing-mode:lr-tb;direction:ltr;fill:#ffffff;fill-opacity:1;stroke:none;stroke-width:0.00831478;stroke-dasharray:none;stroke-opacity:1"
       x="773.77686"
       y="252.53812"
       id="text8"><tspan
         sodipodi:role="line"
         id="tspan8"
         x="773.77686"
         y="252.53812"
         style="font-size:18.6667px">VL-205</tspan></text><path
       inkscape:connector-curvature="0"
       id="path4853"
       d="m 695.23828,450.99023 0,12.88086 0,33.08203 0,10.10157 -49.24609,0 0,83.73047 0,16.62695 c 0,32.73483 26.35306,59.08789 59.08789,59.08789 l 14.20508,0 14.48437,0 59.08789,0 0,-59.08789 0,-16.62695 0,-24.64258 0,-59.08789 0,-43.1836 -65.54687,0 0,-12.88086 -32.07227,0 z"
       style="display:inline;fill:#da3636;fill-opacity:1;stroke:#000000;stroke-width:2;stroke-miterlimit:4;stroke-dasharray:none;stroke-opacity:1"
       inkscape:label="room-VL2-201" /><text
       xml:space="preserve"
       style="font-size:18.6667px;writing-mode:lr-tb;direction:ltr;fill:#ffffff;fill-opacity:1;stroke:none;stroke-width:0.00831478;stroke-dasharray:none;stroke-opacity:1"
       x="686.90375"
       y="571.74634"
       id="text9"><tspan
         sodipodi:role="line"
         id="tspan9"
         x="686.90375"
         y="571.74634">VL-201</tspan></text><path
       style="display:inline;fill:#da3636;fill-opacity:1;stroke:#000000;stroke-width:2;stroke-miterlimit:4;stroke-dasharray:none;stroke-opacity:1"
       d="m 792.85742,623.28516 0,54.23242 33.44727,0 0,55.55859 25.48047,0 0,-55.55859 0,-54.23242 -58.92774,0 z"
       id="path4809"
       inkscape:connector-curvature="0"
       inkscape:label="room-VL2-297-1" /><text
       xml:space="preserve"
       style="font-size:14.6667px;writing-mode:lr-tb;direction:ltr;fill:#ffffff;fill-opacity:1;stroke:none;stroke-width:0.00831478;stroke-dasharray:none;stroke-opacity:1"
       x="801.05096"
       y="646.49762"
       id="text10"><tspan
         sodipodi:role="line"
         id="tspan10"
         x="801.05096"
         y="646.49762"
         style="font-size:14.6667px">VL-</tspan><tspan
         sodipodi:role="line"
         x="801.05096"
         y="664.83099"
         id="tspan11"
         style="font-size:14.6667px">297-1</tspan></text><path
       inkscape:connector-curvature="0"
       id="path4807"
       d="m 764.64258,724.35742 0,28.41602 28.32617,0 0,73.23633 58.81641,0 0,-92.9336 -58.81446,0 0,-8.71875 -28.32812,0 z"
       style="display:inline;fill:#da3636;fill-opacity:1;stroke:#000000;stroke-width:2;stroke-miterlimit:4;stroke-dasharray:none;stroke-opacity:1"
       inkscape:label="room-VL2-240" /><text
       xml:space="preserve"
       style="font-size:18.6667px;writing-mode:lr-tb;direction:ltr;fill:#ffffff;fill-opacity:1;stroke:none;stroke-width:0.00831478;stroke-dasharray:none;stroke-opacity:1"
       x="805.09155"
       y="777.81744"
       id="text12"><tspan
         sodipodi:role="line"
         id="tspan12"
         x="805.09155"
         y="777.81744"
         style="font-size:18.6667px">VL-</tspan><tspan
         sodipodi:role="line"
         x="805.09155"
         y="801.15082"
         id="tspan13"
         style="font-size:18.6667px">240</tspan></text><rect
       y="458.31461"
       x="645.99255"
       height="48.739838"
       width="49.24493"
       id="rect4851"
       style="display:inline;fill:#da3636;fill-opacity:1;stroke:#000000;stroke-width:2;stroke-miterlimit:4;stroke-dasharray:none;stroke-opacity:1"
       inkscape:label="room-VL2-201-1" /><text
       xml:space="preserve"
       style="font-size:13.3333px;writing-mode:lr-tb;direction:ltr;fill:#ffffff;fill-opacity:1;stroke:none;stroke-width:0.00831478;stroke-dasharray:none;stroke-opacity:1"
       x="651.5484"
       y="479.82248"
       id="text14"><tspan
         sodipodi:role="line"
         id="tspan14"
         x="651.5484"
         y="479.82248"
         style="font-size:13.3333px">VL-</tspan><tspan
         sodipodi:role="line"
         x="651.5484"
         y="496.48911"
         id="tspan15"
         style="font-size:13.3333px">201-1</tspan></text><rect
       y="409.06964"
       x="645.99255"
       height="49.244961"
       width="36.113007"
       id="rect4849"
       style="display:inline;fill:#da3636;fill-opacity:1;stroke:#000000;stroke-width:2;stroke-miterlimit:4;stroke-dasharray:none;stroke-opacity:1"
       inkscape:label="room-VL2-203-1" /><text
       xml:space="preserve"
       style="font-size:10.6667px;writing-mode:lr-tb;direction:ltr;fill:#ffffff;fill-opacity:1;stroke:none;stroke-width:0.00831478;stroke-dasharray:none;stroke-opacity:1"
       x="648.51794"
       y="429.31482"
       id="text16"><tspan
         sodipodi:role="line"
         id="tspan16"
         x="648.51794"
         y="429.31482"
         style="font-size:10.6667px">VL-</tspan><tspan
         sodipodi:role="line"
         x="648.51794"
         y="442.64819"
         id="tspan17"
         style="font-size:10.6667px">203-1</tspan></text><rect
       y="360.83398"
       x="645.99255"
       height="48.235657"
       width="36.11298"
       id="rect4847"
       style="display:inline;fill:#da3636;fill-opacity:1;stroke:#000000;stroke-width:2;stroke-miterlimit:4;stroke-dasharray:none;stroke-opacity:1"
       inkscape:label="room-VL2-203-2" /><text
       xml:space="preserve"
       style="font-size:10.6667px;writing-mode:lr-tb;direction:ltr;fill:#ffffff;fill-opacity:1;stroke:none;stroke-width:0.00831478;stroke-dasharray:none;stroke-opacity:1"
       x="648.51794"
       y="381.83765"
       id="text18"><tspan
         sodipodi:role="line"
         id="tspan18"
         x="648.51794"
         y="381.83765">VL-</tspan><tspan
         sodipodi:role="line"
         x="648.51794"
         y="395.17102"
         id="tspan19">203-2</tspan></text><path
       inkscape:connector-curvature="0"
       id="path4843"
       d="m 717.9668,360.83398 0,34.22071 9.34375,0 0,68.8164 65.54687,0 0,-103.03711 -65.54687,0 -9.34375,0 z"
       style="display:inline;fill:#da3636;fill-opacity:1;stroke:#000000;stroke-width:2;stroke-miterlimit:4;stroke-dasharray:none;stroke-opacity:1"
       inkscape:label="room-VL2-204" /><text
       xml:space="preserve"
       style="font-size:16px;writing-mode:lr-tb;direction:ltr;fill:#ffffff;fill-opacity:1;stroke:none;stroke-width:0.00831478;stroke-dasharray:none;stroke-opacity:1"
       x="732.3606"
       y="419.21332"
       id="text20"><tspan
         sodipodi:role="line"
         id="tspan20"
         x="732.3606"
         y="419.21332"
         style="font-size:16px">VL-204</tspan></text><path
       inkscape:connector-curvature="0"
       id="path4845"
       d="m 682.10547,360.83398 0,34.22071 0,1.13476 0,54.80078 45.20508,0 0,-55.93554 -9.34375,0 0,-34.22071 -35.86133,0 z"
       style="display:inline;fill:#da3636;fill-opacity:1;stroke:#000000;stroke-width:2;stroke-miterlimit:4;stroke-dasharray:none;stroke-opacity:1"
       inkscape:label="room-VL2-203-3" /><text
       xml:space="preserve"
       style="font-size:12px;writing-mode:lr-tb;direction:ltr;fill:#ffffff;fill-opacity:1;stroke:none;stroke-width:0.00831478;stroke-dasharray:none;stroke-opacity:1"
       x="687.91388"
       y="413.1524"
       id="text21"><tspan
         sodipodi:role="line"
         id="tspan21"
         x="687.91388"
         y="413.1524"
         style="font-size:12px">VL-</tspan><tspan
         sodipodi:role="line"
         x="687.91388"
         y="428.1524"
         id="tspan22"
         style="font-size:12px">203-3</tspan></text></g><g
     inkscape:groupmode="layer"
     id="layer7"
     inkscape:label="walkable"><path
       style="fill:#4c6daf;fill-opacity:0;stroke:none;stroke-width:0.00831478;stroke-dasharray:none;stroke-opacity:1"
       d="m 828.82422,315.37891 h 33.73828 v 31.0625 h 72.14844 v 5.35546 h 12.5 V 526.4375 h 27.5 v 38.69922 H 850.76953 v 57.13672 H 793.86719 V 359.81641 h -17.5625 v -23.98047 h 52.52343 z"
       id="path25"
       inkscape:label="walkable-1" /><path
       style="fill:#4c6daf;fill-opacity:0;stroke:none;stroke-width:0.00831478;stroke-dasharray:none;stroke-opacity:1"
       d="M 542.46094,160.94922 V 18.902344 h 286.875 V 123.59375 h 18.82031 V 92.867187 h 14.40234 V 315.37109 h -8.98047 V 182.03125 H 828.83203 V 163.84766 H 761.14521 V 333.8125 H 708.62109 V 193.14453 h -16.66797 v -26.76562 h -48.48437 c 0,0 0.008,-5.43314 0,-5.4375 -0.008,-0.004 -101.00781,0.008 -101.00781,0.008 z"
       id="path26"
       inkscape:label="walkable-2" /><path
       style="fill:#4c6daf;fill-opacity:0;stroke:none;stroke-width:0.00831478;stroke-dasharray:none;stroke-opacity:1"
       d="m 206.71875,365.72266 h 35.21875 v 20.1289 h -35.21484 z"
       id="path27"
       inkscape:label="walkable-3" /><path
       style="fill:#4c6daf;fill-opacity:0;stroke:none;stroke-width:0.00831478;stroke-dasharray:none;stroke-opacity:1"
       d="M 206.71875,363.70703 H 644.9375 v -3.90625 H 774.28125 V 335.83203 H 641.44141 V 162.96875 h -96.97266 v 12.52344 h 47.25391 v 153.45312 h -47.25 v 6.78125 h -304.0586 v -22.85937 h -33.69531 z"
       id="path28"
       inkscape:label="walkable-4" /><path
       style="fill:#4c6daf;fill-opacity:0;stroke:none;stroke-width:0.00831478;stroke-dasharray:none;stroke-opacity:1"
       d="M 542.45312,333.71094 V 18.902344 H 209.10156 V 120.72656 h -19.51953 v 49.41016 h 17.14453 v 140.71094 h 35.71485 v 22.85937 z"
       id="path29"
       inkscape:label="walkable-5" /><path
       style="fill:#4c6daf;fill-opacity:0;stroke:none;stroke-width:0.00831478;stroke-dasharray:none;stroke-opacity:1"
       d="M 354.70312,964.41797 V 363.71094 h -57.97656 v 107.74218 h -52.77734 v 74.27344 h -40.32031 v -32.14453 h -99.76172 v 55.71484 H 55.292969 v 61.4336 H 32.4375 v 189.40234 h 52.855469 v 37.7461 H 61.003906 v 65.11718 h 38.574219 v 41.42188 z"
       id="path30"
       inkscape:label="walkable-6" /><path
       style="fill:#4c6daf;fill-opacity:0;stroke:none;stroke-width:0.00831478;stroke-dasharray:none;stroke-opacity:1"
       d="M 644.93359,363.73047 V 824.99219 H 393.96875 V 804.78906 H 354.71484 V 363.71484 Z"
       id="path31"
       inkscape:label="walkable-7" /><path
       style="fill:#4c6daf;fill-opacity:0;stroke:none;stroke-width:0.00831478;stroke-dasharray:none;stroke-opacity:1"
       d="M 791.84375,667.51562 H 644.94141 v 157.47266 h 106.90625 v -73.22656 h 11.78125 v -28.42578 h 28.33203 v -17.01953 h -0.1211 z"
       id="path32"
       inkscape:label="walkable-8" /><path
       style="fill:#4c6daf;fill-opacity:0;stroke:none;stroke-width:0.00831478;stroke-dasharray:none;stroke-opacity:1"
       d="M 694.39844,667.49219 683.125,663.75 l -8.5,-4 -7.4375,-5.25 -5.375,-4.875 -3,-3.3125 -2.9375,-3.875 -4.1875,-6.84375 -2.65625,-5.65625 -1.96875,-5.90625 L 645.84375,618.75 645,612.6875 v 54.80859 z"
       id="path33"
       inkscape:label="walkable-9" /></g><g
     inkscape:groupmode="layer"
     id="layer8"
     inkscape:label="points-of-interest"><rect
       style="display:inline;fill:#da3636;fill-opacity:1;stroke:#000000;stroke-width:2;stroke-miterlimit:4;stroke-dasharray:none;stroke-opacity:1"
       id="rect4829"
       width="38.298561"
       height="32.142056"
       x="204.64287"
       y="512.57227"
       inkscape:label="elevator" /><path
       style="display:inline;fill:#da3636;fill-opacity:1;stroke:#000000;stroke-width:2;stroke-miterlimit:4;stroke-dasharray:none;stroke-opacity:1"
       d="m 200,386.85742 0,70 -45.71484,0 0,55.71485 45.71484,0 42.94141,0 0,-125.71485 -42.94141,0 z"
       id="path4827"
       inkscape:connector-curvature="0"
       inkscape:label="stairs" /><rect
       style="display:inline;fill:#da3636;fill-opacity:1;stroke:#000000;stroke-width:2;stroke-miterlimit:4;stroke-dasharray:none;stroke-opacity:1"
       id="rect4823"
       width="47.25222"
       height="151.42857"
       x="543.46204"
       y="176.5"
       inkscape:label="stairs" /><path
       style="display:inline;fill:#da3636;fill-opacity:1;stroke:#000000;stroke-width:2;stroke-miterlimit:4;stroke-dasharray:none;stroke-opacity:1"
       d="m 642.45703,194.16016 0,50.00195 18.6875,0 0,20.70898 46.4668,0 0,-70.71093 -65.1543,0 z"
       id="path4817"
       inkscape:connector-curvature="0"
       inkscape:label="washroom-m" /><text
       xml:space="preserve"
       style="font-size:14.6667px;writing-mode:lr-tb;direction:ltr;fill:#ffffff;fill-opacity:1;stroke:none;stroke-width:0.00831478;stroke-dasharray:none;stroke-opacity:1"
       x="648.51794"
       y="211.12189"
       id="text6"><tspan
         sodipodi:role="line"
         id="tspan6"
         x="648.51794"
         y="211.12189"
         style="font-size:14.6667px">VL-212</tspan></text><path
       style="display:inline;fill:#da3636;fill-opacity:1;stroke:#000000;stroke-width:2;stroke-miterlimit:4;stroke-dasharray:none;stroke-opacity:1"
       d="m 661.14453,264.87109 0,17.17188 -18.6875,0 0,52.78125 65.1543,0 0,-69.95313 -46.4668,0 z"
       id="path4815"
       inkscape:connector-curvature="0"
       inkscape:label="washroom-f" /><text
       xml:space="preserve"
       style="font-size:14.6667px;writing-mode:lr-tb;direction:ltr;fill:#ffffff;fill-opacity:1;stroke:none;stroke-width:0.00831478;stroke-dasharray:none;stroke-opacity:1"
       x="648.51794"
       y="328.29959"
       id="text7"><tspan
         sodipodi:role="line"
         id="tspan7"
         x="648.51794"
         y="328.29959">VL-210</tspan></text><rect
       style="display:inline;fill:#da3636;fill-opacity:1;stroke:#000000;stroke-width:2;stroke-miterlimit:4;stroke-dasharray:none;stroke-opacity:1"
       id="rect4813"
       width="40.112305"
       height="73.23571"
       x="752.85742"
       y="752.77405"
       inkscape:label="stairs" /><g
       style="fill:#ffffff"
       id="g22"
       transform="matrix(1.297619,0,0,1.297619,208.22793,512.96037)"><path
         fill="#ffffff"
         d="m 7,18 h 3 v -4 h 1 V 11.5 Q 11,10.675 10.413,10.088 9.826,9.501 9,9.5 H 8 Q 7.175,9.5 6.588,10.088 6.001,10.676 6,11.5 V 14 H 7 Z M 9.388,8.138 Q 9.75,7.775 9.75,7.25 9.75,6.725 9.387,6.362 9.024,5.999 8.5,6 7.976,6.001 7.612,6.363 7.248,6.725 7.25,7.25 7.252,7.775 7.613,8.138 7.974,8.501 8.5,8.5 9.026,8.499 9.388,8.137 M 13,11 h 5 L 15.5,7 Z m 2.5,6 2.5,-4 H 13 Z M 5,21 Q 4.175,21 3.588,20.413 3.001,19.826 3,19 V 5 Q 3,4.175 3.588,3.588 4.176,3.001 5,3 H 19 Q 19.825,3 20.413,3.588 21.001,4.176 21,5 v 14 q 0,0.825 -0.587,1.413 Q 19.826,21.001 19,21 Z"
         id="path1" /></g><g
       style="fill:#ffffff"
       id="g23"
       transform="matrix(1.9680628,0,0,1.9680628,197.6441,390.19612)"><path
         fill="#ffffff"
         d="m 6,18 h 4.425 V 14.675 H 13 V 11.35 h 2.575 V 8 H 18 V 6 H 13.575 V 9.325 H 11 V 12.65 H 8.425 V 16 H 6 Z M 5,21 Q 4.175,21 3.588,20.413 3.001,19.826 3,19 V 5 Q 3,4.175 3.588,3.588 4.176,3.001 5,3 H 19 Q 19.825,3 20.413,3.588 21.001,4.176 21,5 v 14 q 0,0.825 -0.587,1.413 Q 19.826,21.001 19,21 Z"
         id="path1-8" /></g><g
       style="fill:#ffffff"
       id="g23-7"
       transform="matrix(2.0943319,0,0,2.0943319,541.74246,218.89969)"><path
         fill="#ffffff"
         d="m 6,18 h 4.425 V 14.675 H 13 V 11.35 h 2.575 V 8 H 18 V 6 H 13.575 V 9.325 H 11 V 12.65 H 8.425 V 16 H 6 Z M 5,21 Q 4.175,21 3.588,20.413 3.001,19.826 3,19 V 5 Q 3,4.175 3.588,3.588 4.176,3.001 5,3 H 19 Q 19.825,3 20.413,3.588 21.001,4.176 21,5 v 14 q 0,0.825 -0.587,1.413 Q 19.826,21.001 19,21 Z"
         id="path1-8-8" /></g><g
       style="fill:#ffffff"
       id="g23-1"
       transform="matrix(1.7101263,0,0,1.7101263,752.37663,769.83272)"><path
         fill="#ffffff"
         d="m 6,18 h 4.425 V 14.675 H 13 V 11.35 h 2.575 V 8 H 18 V 6 H 13.575 V 9.325 H 11 V 12.65 H 8.425 V 16 H 6 Z M 5,21 Q 4.175,21 3.588,20.413 3.001,19.826 3,19 V 5 Q 3,4.175 3.588,3.588 4.176,3.001 5,3 H 19 Q 19.825,3 20.413,3.588 21.001,4.176 21,5 v 14 q 0,0.825 -0.587,1.413 Q 19.826,21.001 19,21 Z"
         id="path1-8-2" /></g><g
       style="fill:#ffffff"
       id="g24"
       transform="matrix(1.8523157,0,0,1.8523157,667.39484,214.19007)"><path
         fill="#ffffff"
         d="M 10,21 V 15 H 9 Q 8.575,15 8.288,14.712 8.001,14.424 8,14 V 9 Q 8,8.175 8.588,7.588 9.176,7.001 10,7 h 4 Q 14.825,7 15.413,7.588 16.001,8.176 16,9 v 5 q 0,0.425 -0.288,0.713 Q 15.424,15.001 15,15 h -1 v 6 q 0,0.425 -0.288,0.713 Q 13.424,22.001 13,22 H 11 Q 10.575,22 10.288,21.712 10.001,21.424 10,21 M 12,6 Q 11.175,6 10.588,5.413 10.001,4.826 10,4 9.999,3.174 10.588,2.588 11.177,2.002 12,2 12.823,1.998 13.413,2.588 14.003,3.178 14,4 13.997,4.822 13.413,5.413 12.829,6.004 12,6"
         id="path1-0" /></g><g
       style="fill:#ffffff"
       id="g25"
       transform="matrix(1.8934161,0,0,1.8934161,666.5602,268.31949)"><path
         fill="#ffffff"
         d="M 10,21 V 16 H 8.475 Q 7.95,16 7.65,15.563 7.35,15.126 7.55,14.625 L 10.05,8.3 Q 10.3,7.7 10.825,7.35 11.35,7 12,7 12.65,7 13.175,7.35 13.7,7.7 13.95,8.3 l 2.5,6.325 q 0.2,0.5 -0.1,0.938 -0.3,0.438 -0.825,0.437 H 14 v 5 q 0,0.425 -0.288,0.713 Q 13.424,22.001 13,22 H 11 Q 10.575,22 10.288,21.712 10.001,21.424 10,21 M 10.588,5.413 Q 10,4.825 10,4 10,3.175 10.588,2.588 11.176,2.001 12,2 12.824,1.999 13.413,2.588 14.002,3.177 14,4 13.998,4.823 13.413,5.413 12.828,6.003 12,6 11.172,5.997 10.588,5.413"
         id="path1-9" /></g></g><g
     inkscape:groupmode="layer"
     id="layer9"
     inkscape:label="connectors"><ellipse
       style="display:inline;fill:#ffffff;fill-opacity:0"
       id="path118-13-182"
       cx="84.521164"
       cy="838.62299"
       rx="4.9497476"
       ry="5.4800777"
       inkscape:label="door-vl2-202-1"
       inkscape:transform-center-x="48.790368"
       inkscape:transform-center-y="10.253048" /><ellipse
       style="display:inline;fill:#ffffff;fill-opacity:0"
       id="path118-13-182-5"
       cx="223.94974"
       cy="545.33722"
       rx="4.9497476"
       ry="5.4800777"
       inkscape:label="door-vl2-elevator"
       inkscape:transform-center-x="48.790368"
       inkscape:transform-center-y="10.253048" /><ellipse
       style="display:inline;fill:#ffffff;fill-opacity:0"
       id="path118-13-182-2"
       cx="269.66403"
       cy="470.48007"
       rx="4.9497476"
       ry="5.4800777"
       inkscape:label="door-vl2-202-30"
       inkscape:transform-center-x="48.790368"
       inkscape:transform-center-y="10.253048" /><ellipse
       style="display:inline;fill:#ffffff;fill-opacity:0"
       id="path118-13-182-1"
       cx="243.23546"
       cy="492.62292"
       rx="4.9497476"
       ry="5.4800777"
       inkscape:label="door-vl2-stairs-1"
       inkscape:transform-center-x="48.790368"
       inkscape:transform-center-y="10.253048" /><ellipse
       style="display:inline;fill:#ffffff;fill-opacity:0"
       id="path118-13-182-4"
       cx="753.37836"
       cy="768.33722"
       rx="4.9497476"
       ry="5.4800777"
       inkscape:label="door-vl2-stairs-2"
       inkscape:transform-center-x="48.790368"
       inkscape:transform-center-y="10.253048" /><ellipse
       style="display:inline;fill:#ffffff;fill-opacity:0"
       id="path118-13-182-6"
       cx="764.23547"
       cy="738.1944"
       rx="4.9497476"
       ry="5.4800777"
       inkscape:label="door-vl2-240"
       inkscape:transform-center-x="48.790368"
       inkscape:transform-center-y="10.253048" /><ellipse
       style="display:inline;fill:#ffffff;fill-opacity:0"
       id="path118-13-182-8"
       cx="822.94977"
       cy="621.90869"
       rx="4.9497476"
       ry="5.4800777"
       inkscape:label="door-vl2-297-1"
       inkscape:transform-center-x="48.790368"
       inkscape:transform-center-y="10.253048" /><ellipse
       style="display:inline;fill:#ffffff;fill-opacity:0"
       id="path118-13-182-84"
       cx="566.80688"
       cy="327.62292"
       rx="4.9497476"
       ry="5.4800777"
       inkscape:label="door-vl2-stairs-3"
       inkscape:transform-center-x="48.790368"
       inkscape:transform-center-y="10.253048" /><ellipse
       style="display:inline;fill:#ffffff;fill-opacity:0"
       id="path118-13-182-43"
       cx="645.80688"
       cy="483.90863"
       rx="4.9497476"
       ry="5.4800777"
       inkscape:label="door-vl2-201-1"
       inkscape:transform-center-x="48.790368"
       inkscape:transform-center-y="10.253048" /><ellipse
       style="display:inline;fill:#ffffff;fill-opacity:0"
       id="path118-13-182-88"
       cx="645.23547"
       cy="433.90863"
       rx="4.9497476"
       ry="5.4800777"
       inkscape:label="door-vl2-203-1"
       inkscape:transform-center-x="48.790368"
       inkscape:transform-center-y="10.253048" /><ellipse
       style="display:inline;fill:#ffffff;fill-opacity:0"
       id="path118-13-182-87"
       cx="645.52118"
       cy="384.62292"
       rx="4.9497476"
       ry="5.4800777"
       inkscape:label="door-vl2-203-2"
       inkscape:transform-center-x="48.790368"
       inkscape:transform-center-y="10.253048" /><ellipse
       style="display:inline;fill:#ffffff;fill-opacity:0"
       id="path118-13-182-83"
       cx="699.52118"
       cy="360.33722"
       rx="4.9497476"
       ry="5.4800777"
       inkscape:label="door-vl2-203-3"
       inkscape:transform-center-x="48.790368"
       inkscape:transform-center-y="10.253048" /><ellipse
       style="display:inline;fill:#ffffff;fill-opacity:0"
       id="path118-13-182-3"
       cx="746.52118"
       cy="361.05151"
       rx="4.9497476"
       ry="5.4800777"
       inkscape:label="door-vl2-204"
       inkscape:transform-center-x="48.790368"
       inkscape:transform-center-y="10.253048" /><ellipse
       style="display:inline;fill:#ffffff;fill-opacity:0"
       id="path118-13-182-10"
       cx="762.09265"
       cy="244.62292"
       rx="4.9497476"
       ry="5.4800777"
       inkscape:label="door-vl2-205"
       inkscape:transform-center-x="48.790368"
       inkscape:transform-center-y="10.253048" /><ellipse
       style="display:inline;fill:#ffffff;fill-opacity:0"
       id="path118-13-182-34"
       cx="642.23547"
       cy="294.48007"
       rx="4.9497476"
       ry="5.4800777"
       inkscape:label="door-vl2-washroom-1"
       inkscape:transform-center-x="48.790368"
       inkscape:transform-center-y="10.253048" /><ellipse
       style="display:inline;fill:#ffffff;fill-opacity:0"
       id="path118-13-182-65"
       cx="642.09265"
       cy="231.19435"
       rx="4.9497476"
       ry="5.4800777"
       inkscape:label="door-vl2-washroom-2"
       inkscape:transform-center-x="48.790368"
       inkscape:transform-center-y="10.253048" /><ellipse
       style="display:inline;fill:#ffffff;fill-opacity:0"
       id="path118-13-182-0"
       cx="793.09265"
       cy="509.1944"
       rx="4.9497476"
       ry="5.4800777"
       inkscape:label="door-vl2-201"
       inkscape:transform-center-x="48.790368"
       inkscape:transform-center-y="10.253048" /></g></svg>
